<?xml version="1.0" encoding="UTF-8"?>
<svg id="Layer_2" data-name="Layer 2" xmlns="http://www.w3.org/2000/svg" viewBox="0 0 19.39 14.93">
  <g id="ELEMENTS">
    <g>
      <path d="m19.2,1.38s-.05.07-.08.11l-6.62,7.51c-.71.81-1.73,1.27-2.81,1.27-1.07,0-2.1-.46-2.81-1.27L.18,1.39c-.12.28-.18.58-.18.9v8.61c0,2.22,1.8,4.03,4.03,4.03h11.34c2.22,0,4.03-1.8,4.03-4.03V2.29c0-.32-.07-.63-.19-.91Z"/>
      <path d="m8.39,7.66c.33.38.79.59,1.3.59s.97-.21,1.3-.59L17.61.15s.05-.05.08-.07c-.19-.05-.39-.08-.59-.08H2.28c-.2,0-.39.03-.58.08l6.69,7.59Z"/>
    </g>
  </g>
</svg>